<svg width="20" height="21" viewBox="0 0 20 21" fill="none" xmlns="http://www.w3.org/2000/svg">
<path d="M10 0.66333C12.717 0.66333 13.056 0.67333 14.122 0.72333C15.187 0.77333 15.912 0.94033 16.55 1.18833C17.21 1.44233 17.766 1.78633 18.322 2.34133C18.8305 2.84123 19.224 3.44592 19.475 4.11333C19.722 4.75033 19.89 5.47633 19.94 6.54133C19.987 7.60733 20 7.94633 20 10.6633C20 13.3803 19.99 13.7193 19.94 14.7853C19.89 15.8503 19.722 16.5753 19.475 17.2133C19.2247 17.8811 18.8311 18.4859 18.322 18.9853C17.822 19.4937 17.2173 19.8871 16.55 20.1383C15.913 20.3853 15.187 20.5533 14.122 20.6033C13.056 20.6503 12.717 20.6633 10 20.6633C7.283 20.6633 6.944 20.6533 5.878 20.6033C4.813 20.5533 4.088 20.3853 3.45 20.1383C2.78233 19.8878 2.17753 19.4943 1.678 18.9853C1.16941 18.4855 0.775931 17.8808 0.525 17.2133C0.277 16.5763 0.11 15.8503 0.0599999 14.7853C0.0129999 13.7193 0 13.3803 0 10.6633C0 7.94633 0.00999994 7.60733 0.0599999 6.54133C0.11 5.47533 0.277 4.75133 0.525 4.11333C0.775236 3.44551 1.1688 2.84065 1.678 2.34133C2.17767 1.83256 2.78243 1.43906 3.45 1.18833C4.088 0.94033 4.812 0.77333 5.878 0.72333C6.944 0.67633 7.283 0.66333 10 0.66333ZM10 5.66333C8.67392 5.66333 7.40215 6.19011 6.46447 7.1278C5.52678 8.06548 5 9.33725 5 10.6633C5 11.9894 5.52678 13.2612 6.46447 14.1989C7.40215 15.1365 8.67392 15.6633 10 15.6633C11.3261 15.6633 12.5979 15.1365 13.5355 14.1989C14.4732 13.2612 15 11.9894 15 10.6633C15 9.33725 14.4732 8.06548 13.5355 7.1278C12.5979 6.19011 11.3261 5.66333 10 5.66333ZM16.5 5.41333C16.5 5.08181 16.3683 4.76387 16.1339 4.52945C15.8995 4.29503 15.5815 4.16333 15.25 4.16333C14.9185 4.16333 14.6005 4.29503 14.3661 4.52945C14.1317 4.76387 14 5.08181 14 5.41333C14 5.74485 14.1317 6.06279 14.3661 6.29721C14.6005 6.53163 14.9185 6.66333 15.25 6.66333C15.5815 6.66333 15.8995 6.53163 16.1339 6.29721C16.3683 6.06279 16.5 5.74485 16.5 5.41333ZM10 7.66333C10.7956 7.66333 11.5587 7.9794 12.1213 8.54201C12.6839 9.10462 13 9.86768 13 10.6633C13 11.459 12.6839 12.222 12.1213 12.7847C11.5587 13.3473 10.7956 13.6633 10 13.6633C9.20435 13.6633 8.44129 13.3473 7.87868 12.7847C7.31607 12.222 7 11.459 7 10.6633C7 9.86768 7.31607 9.10462 7.87868 8.54201C8.44129 7.9794 9.20435 7.66333 10 7.66333Z" fill="#7B29DD"/>
</svg>
