<svg width="22" height="17" viewBox="0 0 22 17" fill="none" xmlns="http://www.w3.org/2000/svg">
<path d="M21.162 2.31901C20.3986 2.65671 19.589 2.87849 18.76 2.97701C19.6337 2.45445 20.2877 1.63203 20.6 0.663012C19.78 1.15101 18.881 1.49301 17.944 1.67801C17.3146 1.00459 16.4804 0.557976 15.5709 0.407597C14.6615 0.257219 13.7279 0.411504 12.9153 0.846466C12.1026 1.28143 11.4564 1.9727 11.0771 2.81281C10.6978 3.65291 10.6067 4.59479 10.818 5.49201C9.1551 5.40867 7.52832 4.97654 6.04328 4.22368C4.55823 3.47082 3.24812 2.41406 2.19799 1.12201C1.82628 1.76046 1.63095 2.48624 1.63199 3.22501C1.63199 4.67501 2.36999 5.95601 3.49199 6.70601C2.828 6.68511 2.17862 6.50579 1.59799 6.18301V6.23501C1.59819 7.20071 1.93236 8.13663 2.54384 8.88407C3.15532 9.63152 4.00647 10.1445 4.95299 10.336C4.33661 10.503 3.6903 10.5277 3.06299 10.408C3.32986 11.2392 3.85 11.9662 4.55058 12.4871C5.25117 13.008 6.09712 13.2968 6.96999 13.313C6.10247 13.9943 5.10917 14.498 4.04687 14.7952C2.98458 15.0924 1.87412 15.1773 0.778992 15.045C2.69069 16.2744 4.91609 16.9271 7.18899 16.925C14.882 16.925 19.089 10.552 19.089 5.02501C19.089 4.84501 19.084 4.66301 19.076 4.48501C19.8949 3.89318 20.6016 3.16003 21.163 2.32001L21.162 2.31901Z" fill="#7B29DD"/>
</svg>
