<svg width="20" height="17" viewBox="0 0 20 17" fill="none" xmlns="http://www.w3.org/2000/svg">
<path d="M19.543 3.16109C20 4.94309 20 8.66309 20 8.66309C20 8.66309 20 12.3831 19.543 14.1651C19.289 15.1501 18.546 15.9251 17.605 16.1871C15.896 16.6631 10 16.6631 10 16.6631C10 16.6631 4.107 16.6631 2.395 16.1871C1.45 15.9211 0.708 15.1471 0.457 14.1651C2.98023e-08 12.3831 0 8.66309 0 8.66309C0 8.66309 2.98023e-08 4.94309 0.457 3.16109C0.711 2.17609 1.454 1.40109 2.395 1.13909C4.107 0.663086 10 0.663086 10 0.663086C10 0.663086 15.896 0.663086 17.605 1.13909C18.55 1.40509 19.292 2.17909 19.543 3.16109ZM8 12.1631L14 8.66309L8 5.16309V12.1631Z" fill="#7B29DD"/>
</svg>
